# xmcd
#
# Track frame offsets:
#	150
#	16073
#	35319
#	49122
#	61691
#	77601
#	94331
#	112929
#	134259
#	150897
#	170864
#	188210
#	207728
#	230497
#	252299
#	270430
#	284629
#	301256
#	317069
#	329355
#	341135
#
# Disc length: 4762 seconds
#
# Revision: 1
# Processed by: cddbd v1.5.2PL0 Copyright (c) Steve Scherf et al.
# Submitted via: audiograbber 1.83.01
#
DISCID=24129815
DTITLE=div - Café Puls Italo Hits '17
DYEAR=2017
DGENRE=Pop
TTITLE0=Francesco Gabbani - Occidentali's Karma (Radio Edit)
TTITLE1=Umberto Tozzi - Gloria
TTITLE2=Al Bano and Romina Power - Felicità
TTITLE3=Ricchi E Poveri - Mamma Maria
TTITLE4=Righeira - Vamos A La Playa
TTITLE5=Ryan Paris - Dolce Vita
TTITLE6=Edoardo Bennato and Gianna Nannini - Un'estate Italiana
TTITLE7=Eros Ramazzotti - Cose Della Vita
TTITLE8=Il Volo - Grande Amore
TTITLE9=Umberto Tozzi - Ti Amo
TTITLE10=Toto Cutugno - L'italiano
TTITLE11=Jovanotti - L'ombelico Del Mondo
TTITLE12=Tullio De Piscopo - Stop Bajon
TTITLE13=Lucio Dalla - Tutta La Vita
TTITLE14=Loretta Goggi - Maledetta Primavera
TTITLE15=Pupo - Su Di Noi
TTITLE16=Riccardo Foglo - Storie Di Tutti I Giorni
TTITLE17=Raphael Gualazzi - Madness Of Love
TTITLE18=Paolo Conte - Via Con Me (It´s Wonderful)
TTITLE19=Rocco Granata - Marina
TTITLE20=Domenico Modugno - Nel Blu Dipinto Di Blu (Volare)
EXTD=
EXTT0=
EXTT1=
EXTT2=
EXTT3=
EXTT4=
EXTT5=
EXTT6=
EXTT7=
EXTT8=
EXTT9=
EXTT10=
EXTT11=
EXTT12=
EXTT13=
EXTT14=
EXTT15=
EXTT16=
EXTT17=
EXTT18=
EXTT19=
EXTT20=
PLAYORDER=
